<?xml version="1.0" standalone="no"?>
<!DOCTYPE svg PUBLIC "-//W3C//DTD SVG 20010904//EN"
 "http://www.w3.org/TR/2001/REC-SVG-20010904/DTD/svg10.dtd">
<svg version="1.0" xmlns="http://www.w3.org/2000/svg"
 width="300.000000pt" height="300.000000pt" viewBox="0 0 300.000000 300.000000"
 preserveAspectRatio="xMidYMid meet">
<metadata>
Created by potrace 1.10, written by Peter Selinger 2001-2011
</metadata>
<g transform="translate(0.000000,300.000000) scale(0.100000,-0.100000)"
fill="#000000" stroke="none">
<path d="M673 2843 c4 -3 10 -3 14 0 3 4 0 7 -7 7 -7 0 -10 -3 -7 -7z"/>
<path d="M2313 2843 c4 -3 10 -3 14 0 3 4 0 7 -7 7 -7 0 -10 -3 -7 -7z"/>
<path d="M2194 2783 c-21 -21 -34 -31 -29 -24 4 8 -27 -13 -71 -46 -43 -33
-144 -106 -224 -163 -158 -112 -261 -205 -291 -262 -18 -34 -21 -36 -66 -35
-46 2 -48 3 -71 49 -24 49 -92 113 -227 214 -125 94 -174 126 -185 119 -6 -4
-9 -1 -8 6 2 6 -40 35 -93 63 -53 28 -104 57 -113 65 -9 7 -16 10 -16 6 0 -4
-8 -1 -17 6 -15 12 -16 12 -9 -5 6 -19 6 -19 -12 -3 -15 14 -19 14 -19 2 0 -8
6 -16 14 -19 7 -3 13 -13 13 -22 0 -13 -3 -14 -14 -5 -17 14 -28 1 -30 -32 -1
-11 -7 -22 -15 -25 -8 -3 -11 0 -7 7 4 6 4 10 -1 9 -4 -1 -23 6 -41 16 -18 9
-39 15 -45 13 -7 -3 0 -10 16 -16 15 -6 30 -17 33 -26 3 -8 10 -13 14 -10 5 3
12 1 15 -5 5 -8 11 -7 21 1 11 9 21 6 46 -13 18 -13 42 -28 53 -32 13 -5 16
-10 7 -13 -6 -3 -10 -9 -7 -14 7 -11 -40 -23 -54 -14 -6 3 -11 1 -11 -4 0 -6
7 -11 15 -11 8 0 23 -4 33 -9 9 -5 32 -15 50 -22 43 -16 35 -22 -14 -11 -66
16 -69 17 -75 26 -4 4 -9 4 -13 -2 -3 -6 9 -16 29 -22 44 -15 57 -33 19 -28
-15 2 -29 -2 -31 -9 -3 -7 2 -13 11 -13 9 0 16 -4 16 -9 0 -6 8 -9 18 -9 9 0
46 -3 82 -7 53 -6 63 -5 53 6 -8 7 -32 12 -60 11 -57 -2 -92 13 -52 23 14 3
36 2 49 -3 29 -11 53 -5 44 10 -4 7 -2 8 5 4 6 -4 9 -12 6 -17 -4 -5 0 -9 8
-9 8 0 20 -6 26 -13 14 -18 -28 -42 -58 -34 -12 3 -23 2 -26 -3 -2 -4 -17 -5
-32 -3 l-28 4 30 -14 c21 -10 26 -15 16 -21 -8 -5 -16 -4 -20 2 -8 13 -121 23
-121 11 0 -5 22 -9 49 -9 42 0 51 -3 56 -21 6 -18 12 -20 55 -14 27 4 55 3 62
-2 7 -4 20 -8 28 -9 8 -1 25 -2 38 -3 35 -2 26 -19 -15 -27 -21 -4 -44 -11
-50 -17 -9 -6 -13 -6 -13 2 0 7 -5 9 -12 5 -6 -4 -23 -10 -38 -13 -27 -6 -27
-6 -7 -26 14 -14 18 -15 15 -5 -4 10 0 16 11 17 9 0 34 4 57 8 33 6 42 4 47
-9 5 -11 1 -16 -12 -16 -11 0 -27 -3 -37 -7 -12 -5 -15 -3 -9 6 6 10 2 11 -16
6 -54 -17 -35 -29 46 -28 62 1 88 -13 46 -24 -11 -3 -22 -11 -25 -19 -3 -8
-13 -14 -23 -15 -14 0 -13 -2 5 -9 12 -5 22 -14 22 -20 0 -5 8 -10 18 -11 10
0 12 -3 5 -6 -21 -8 -15 -22 7 -16 12 3 20 0 20 -7 0 -6 -12 -11 -27 -10 -16
1 -32 1 -38 0 -19 -5 -30 -8 -40 -9 -5 -1 -4 -5 4 -10 9 -6 23 -5 37 1 31 15
117 -26 109 -51 -3 -12 3 -22 21 -32 l26 -14 -23 -6 c-22 -6 -22 -7 -5 -14 21
-9 38 11 32 37 -2 10 -1 17 3 16 19 -2 24 4 11 13 -12 9 -11 10 5 6 11 -3 29
-8 40 -12 14 -5 16 -4 7 2 -11 8 -10 12 1 22 11 9 17 8 24 -1 12 -14 3 -49
-12 -51 -6 0 -16 -7 -24 -15 -11 -11 -12 -16 -2 -21 10 -6 9 -11 -1 -22 -19
-19 -30 -49 -18 -49 6 0 10 4 10 9 0 17 30 20 45 4 9 -8 19 -13 22 -9 3 3 12
1 20 -5 8 -8 13 -8 13 -1 0 6 -5 12 -11 14 -5 2 -7 11 -4 21 4 9 11 14 16 11
5 -3 7 -10 4 -15 -4 -5 0 -9 7 -9 7 -1 22 -8 34 -18 22 -19 27 -73 7 -79 -7
-3 -10 -10 -8 -16 3 -7 -8 -21 -23 -32 -15 -10 -22 -13 -16 -5 6 8 8 24 4 34
-4 13 -9 16 -13 9 -4 -7 -3 -15 3 -18 8 -5 7 -11 -1 -21 -9 -11 -8 -19 6 -34
10 -11 15 -20 10 -20 -4 0 -16 9 -25 20 -10 12 -21 17 -24 12 -3 -4 6 -20 19
-34 15 -16 20 -30 15 -39 -5 -7 -7 -16 -5 -19 2 -3 -5 -11 -15 -18 -12 -7 -21
-8 -25 -2 -3 6 -11 10 -18 10 -6 0 -3 -6 8 -13 11 -9 15 -19 10 -27 -5 -9 -4
-11 3 -6 13 8 72 -20 72 -34 0 -5 -9 -12 -20 -15 -11 -3 -20 -11 -20 -16 0
-17 -22 -9 -68 27 l-47 36 43 -39 c23 -21 42 -47 42 -58 0 -15 3 -16 12 -7 10
10 15 8 23 -8 10 -19 12 -19 49 16 42 40 44 56 2 23 -29 -23 -70 -19 -47 4 7
7 16 13 22 13 5 1 10 2 12 4 10 8 44 7 60 -2 16 -8 17 -12 6 -19 -11 -7 -9 -9
8 -9 12 0 25 5 28 10 13 21 25 9 25 -26 0 -40 0 -39 -82 -19 -20 5 -26 2 -31
-14 -3 -14 0 -21 9 -21 8 0 14 5 14 10 0 13 68 3 88 -13 8 -6 12 -36 11 -88
l-1 -79 -37 -1 c-23 -1 -28 -3 -13 -6 32 -6 27 -23 -8 -23 -22 0 -30 5 -31 18
0 14 -2 14 -8 -3 -12 -28 -8 -31 38 -27 27 3 41 9 41 18 0 20 18 17 23 -3 3
-11 5 -7 6 10 0 15 5 27 10 27 13 0 21 -27 21 -75 0 -37 -3 -44 -22 -48 l-23
-4 23 -2 c35 -2 27 -35 -20 -75 -32 -27 -39 -39 -30 -48 8 -8 14 -5 20 13 6
13 19 33 31 43 21 19 21 19 21 -3 0 -12 -8 -34 -17 -49 -14 -22 -15 -25 -2
-15 14 11 16 3 16 -77 0 -97 -5 -102 -51 -51 -19 21 -19 22 14 56 19 19 31 35
27 35 -4 0 -25 -18 -46 -39 -33 -33 -37 -42 -25 -52 8 -6 14 -8 14 -3 0 4 16
-7 35 -26 30 -29 35 -41 35 -79 0 -42 -1 -43 -18 -28 -13 12 -19 13 -19 4 0
-7 11 -21 24 -30 26 -20 26 -21 23 58 -1 44 2 53 32 81 27 26 37 30 57 23 14
-6 21 -15 18 -24 -4 -9 -1 -12 8 -9 7 3 16 12 19 19 3 9 0 12 -8 9 -14 -5 -29
10 -32 33 -1 7 9 22 23 32 l24 20 -32 29 c-26 23 -32 38 -37 81 -4 48 -3 53
14 49 11 -2 18 -9 17 -16 -4 -18 21 -4 36 21 13 20 13 21 -1 9 -10 -8 -26 -10
-42 -6 -21 5 -26 13 -27 38 -2 31 -2 31 -6 3 -3 -21 -9 -27 -20 -23 -8 3 -21
6 -29 6 -12 0 -14 12 -12 58 3 49 0 58 -17 67 -17 9 -20 22 -23 83 l-3 73 36
-3 c28 -2 35 -6 36 -23 0 -16 3 -15 11 8 7 21 16 27 38 27 16 0 32 5 35 10 4
7 -8 8 -35 4 l-41 -7 6 34 c8 42 9 43 28 24 21 -21 25 -19 23 10 0 14 -7 25
-13 25 -16 0 16 33 47 50 12 7 19 18 16 26 -8 21 18 17 39 -6 20 -22 20 -22
-13 -39 -17 -9 -27 -9 -36 -1 -10 8 -15 6 -20 -7 -4 -10 -2 -19 3 -21 6 -2 8
-8 5 -14 -3 -5 3 -16 15 -24 24 -17 28 -39 6 -30 -8 3 -15 1 -15 -3 0 -18 12
-41 22 -41 6 0 8 7 5 15 -10 26 14 28 41 4 21 -19 23 -19 9 -3 -23 28 -22 33
13 45 31 11 38 23 20 34 -5 3 -10 1 -10 -4 0 -19 -22 -12 -27 9 -3 11 -10 17
-15 14 -5 -3 -2 -14 8 -25 16 -17 16 -19 0 -25 -11 -4 -25 0 -36 12 -16 16
-17 22 -6 36 7 10 24 19 37 20 29 4 51 38 33 53 -17 15 -25 45 -12 45 7 0 6 5
-2 15 -9 11 -9 15 -1 15 7 0 9 5 6 10 -3 6 0 10 9 10 15 0 16 23 2 37 -4 4 -7
3 -6 -2 5 -22 -1 -27 -15 -15 -8 7 -12 16 -9 21 3 5 0 8 -8 7 -7 -2 -12 3 -10
10 1 9 -2 11 -10 6 -7 -4 -5 2 5 13 21 24 6 41 -16 18 -13 -13 -17 -12 -29 8
-15 22 -12 47 8 81 13 21 36 13 27 -9 -3 -10 1 -15 11 -15 10 0 16 7 14 17 -4
21 23 24 38 4 15 -20 33 -5 26 22 -5 20 -4 21 11 8 9 -7 17 -19 17 -27 0 -7 5
-16 12 -20 7 -5 9 -2 5 8 -3 9 0 21 6 28 9 10 9 11 0 6 -6 -3 -14 -2 -18 4 -3
6 4 10 17 10 18 0 20 2 8 9 -8 6 -19 7 -25 3 -5 -3 -4 2 4 11 12 15 11 17 -3
17 -9 0 -16 -8 -16 -17 0 -9 -3 -13 -7 -9 -4 4 -8 15 -8 24 0 10 -7 16 -18 16
-17 -2 -17 0 -3 15 9 10 13 22 9 26 -5 5 -1 4 8 -3 9 -6 19 -9 22 -5 4 3 7 1
7 -6 0 -7 5 -9 11 -5 8 4 7 9 -2 15 -7 4 -10 11 -7 14 13 13 30 -8 25 -31 -5
-28 14 -32 33 -9 7 9 19 14 27 11 7 -3 13 -1 13 4 0 6 -5 10 -10 10 -6 0 -5 8
2 19 15 24 91 45 116 33 20 -11 45 -5 37 8 -3 5 -12 7 -19 4 -8 -3 -17 -1 -20
4 -3 6 -23 6 -48 2 -24 -5 -45 -7 -47 -5 -8 9 12 26 28 23 21 -4 67 37 52 47
-6 3 -15 4 -20 1 -5 -3 -12 1 -15 10 -5 12 -2 15 10 10 9 -3 28 -8 42 -11 26
-5 26 -5 5 6 -13 7 -23 15 -23 20 0 4 -8 5 -18 2 -29 -7 -23 25 7 35 14 5 36
6 48 1 23 -8 63 -1 63 11 0 13 -39 19 -78 13 -34 -6 -36 -5 -23 10 14 17 64
19 89 3 7 -4 16 -4 22 -1 6 4 7 -1 4 -12 -5 -17 -5 -17 9 0 8 9 23 18 33 18
19 2 -36 14 -111 25 -46 7 -49 9 -40 23 7 12 45 15 45 4 0 -5 15 -9 33 -9 17
-1 24 1 15 3 -10 2 -18 8 -18 13 0 5 -7 7 -15 4 -8 -4 -15 -1 -15 4 0 6 10 13
23 15 17 3 16 5 -8 6 l-30 1 25 13 c33 17 58 17 64 0 3 -8 -2 -13 -12 -13 -15
0 -15 -2 -2 -10 24 -16 54 -11 68 10 14 23 89 28 112 8 12 -11 12 -10 0 5 -12
16 -12 20 0 27 8 5 11 12 8 16 -4 3 -14 -1 -23 -10 -10 -10 -33 -16 -58 -16
-23 0 -53 -3 -67 -6 -17 -5 -22 -3 -15 4 6 5 19 12 30 14 11 3 -1 5 -27 6 -26
0 -55 5 -65 12 -10 6 -12 10 -3 7 8 -2 37 2 65 8 27 7 64 11 81 10 26 -1 31 2
30 19 -1 17 -6 20 -30 18 -38 -5 -26 13 19 28 20 6 32 16 29 22 -4 7 -9 6 -14
-2 -4 -6 -10 -11 -14 -11 -3 1 -18 -2 -32 -5 -34 -9 -39 0 -17 26 20 24 60 44
81 41 10 -2 11 2 3 18 -7 12 -17 18 -26 15 -8 -4 -12 -10 -9 -15 3 -5 0 -9 -5
-9 -17 0 -13 14 9 38 15 16 28 20 44 16 13 -3 27 -1 31 5 3 6 11 9 16 6 5 -4
9 -2 9 4 0 6 15 18 33 27 17 10 27 19 20 21 -6 2 -27 -4 -45 -13 -18 -10 -37
-17 -41 -16 -5 1 -6 -2 -3 -7 3 -5 0 -11 -8 -14 -9 -4 -13 2 -11 16 0 12 -3
30 -8 40 -7 15 -11 16 -23 6 -25 -20 -27 -2 -4 30 17 25 18 31 6 31 -8 0 -18
-4 -21 -10 -3 -5 -14 -10 -23 -10 -15 1 -15 2 2 15 10 8 24 16 30 18 6 2 8 7
5 11 -4 4 -24 -10 -45 -31z m-1408 -95 c16 -18 17 -21 2 -15 -9 3 -18 1 -20
-5 -2 -6 -10 -8 -16 -4 -18 11 -14 26 5 19 12 -5 15 -2 10 10 -9 23 -4 21 19
-5z m1392 -207 c11 -6 10 -10 -4 -15 -10 -4 -21 -1 -26 6 -6 10 -8 10 -8 1 0
-7 -7 -10 -15 -7 -8 4 -12 10 -9 15 7 11 45 11 62 0z m-1253 -91 c-3 -6 0 -7
8 -4 8 3 18 1 22 -5 4 -7 -9 -11 -37 -10 -24 0 -37 3 -30 6 6 2 10 8 8 12 -3
4 4 8 15 8 11 1 17 -2 14 -7z m122 -106 c-3 -3 -12 -4 -19 -1 -8 3 -5 6 6 6
11 1 17 -2 13 -5z m1000 -31 c-4 -3 -10 -3 -14 0 -3 4 0 7 7 7 7 0 10 -3 7 -7z
m-499 -60 c-5 -26 -9 -60 -10 -75 -1 -16 -5 -28 -10 -28 -4 0 -7 3 -7 8 4 24
-2 52 -11 47 -5 -3 -6 -13 -3 -23 6 -16 5 -16 -11 1 -14 14 -15 21 -6 32 6 7
17 12 24 9 6 -2 12 4 13 16 1 13 -4 20 -17 20 -10 0 -17 -7 -16 -16 0 -9 -5
-19 -11 -21 -9 -3 -13 6 -13 30 0 42 1 43 48 45 l40 3 -10 -48z m-449 4 c-2
-1 -11 -8 -20 -15 -13 -9 -16 -9 -16 3 0 8 9 15 20 15 11 0 18 -1 16 -3z m28
-4 c-4 -3 -10 -3 -14 0 -3 4 0 7 7 7 7 0 10 -3 7 -7z m-89 -28 c-3 -3 -13 -2
-22 1 -14 5 -15 9 -4 15 13 8 36 -6 26 -16z m67 -33 c-3 -3 -11 0 -18 7 -9 10
-8 11 6 5 10 -3 15 -9 12 -12z m100 -30 c-3 -3 -11 0 -18 7 -9 10 -8 11 6 5
10 -3 15 -9 12 -12z m-35 -2 c0 -5 -7 -10 -15 -10 -8 0 -15 -4 -15 -10 0 -5 5
-10 10 -10 6 0 10 -4 10 -10 0 -14 -13 -12 -36 5 -19 15 -19 15 0 30 23 17 46
20 46 5z m710 -10 c0 -13 -11 -13 -30 0 -12 8 -11 10 8 10 12 0 22 -4 22 -10z
m-13 -27 c-4 -3 -10 -3 -14 0 -3 4 0 7 7 7 7 0 10 -3 7 -7z m-740 -30 c-4 -3
-7 0 -7 7 0 7 3 10 7 7 3 -4 3 -10 0 -14z m129 -64 c3 -6 2 -15 -4 -21 -6 -6
-11 -2 -15 11 -5 22 7 29 19 10z m21 -16 c-4 -3 -7 0 -7 7 0 7 3 10 7 7 3 -4
3 -10 0 -14z m422 -208 c13 -14 22 -28 19 -30 -6 -6 -58 37 -58 48 0 14 15 6
39 -18z m-412 -132 c-4 -3 -7 0 -7 7 0 7 3 10 7 7 3 -4 3 -10 0 -14z m45 -18
c-11 -21 -25 -4 -16 20 4 10 10 13 16 7 7 -7 7 -16 0 -27z m49 -20 c24 -10 28
-14 14 -14 -11 0 -29 6 -39 14 -25 19 -17 19 25 0z m69 -20 c7 -8 9 -15 6 -15
-4 0 -14 7 -22 15 -9 8 -11 15 -6 15 5 0 15 -7 22 -15z m57 -71 c-1 -20 -3
-32 -5 -25 -2 6 -8 9 -13 5 -13 -8 -11 30 3 44 16 16 16 17 15 -24z m20 4 c-3
-7 -5 -2 -5 12 0 14 2 19 5 13 2 -7 2 -19 0 -25z m31 -344 c18 -5 22 -13 22
-46 0 -35 -2 -39 -15 -28 -32 26 9 -35 45 -67 l35 -32 -61 -62 -62 -62 0 68
-1 67 37 -33 37 -34 -37 40 c-21 23 -38 49 -38 60 0 16 4 15 33 -11 l32 -29
-32 35 c-33 36 -48 100 -20 84 10 -6 10 -4 0 7 -14 14 -18 49 -5 49 4 0 17 -3
30 -6z"/>
<path d="M2270 2810 c0 -7 3 -10 7 -7 3 4 3 10 0 14 -4 3 -7 0 -7 -7z"/>
<path d="M473 2763 c4 -3 10 -3 14 0 3 4 0 7 -7 7 -7 0 -10 -3 -7 -7z"/>
<path d="M2513 2763 c4 -3 10 -3 14 0 3 4 0 7 -7 7 -7 0 -10 -3 -7 -7z"/>
<path d="M693 2723 c4 -3 10 -3 14 0 3 4 0 7 -7 7 -7 0 -10 -3 -7 -7z"/>
<path d="M650 2615 c7 -8 24 -15 39 -15 l26 1 -25 14 c-35 20 -57 20 -40 0z"/>
<path d="M746 2623 c-10 -10 -7 -35 3 -28 5 3 12 1 16 -5 3 -5 13 -10 21 -10
12 0 12 3 2 20 -14 22 -33 32 -42 23z"/>
<path d="M2310 2615 l-25 -14 26 -1 c15 0 32 7 39 15 17 20 -5 20 -40 0z"/>
<path d="M589 2598 c-8 -32 -6 -37 8 -29 9 4 25 6 37 3 14 -3 18 -1 11 6 -10
10 -54 26 -56 20z"/>
<path d="M2373 2590 c-33 -13 -28 -20 10 -17 17 1 31 7 30 12 -2 14 -15 15
-40 5z"/>
<path d="M700 2580 c0 -6 7 -10 15 -10 8 0 15 2 15 4 0 2 -7 6 -15 10 -8 3
-15 1 -15 -4z"/>
<path d="M2280 2580 c-13 -8 -12 -10 3 -10 9 0 17 5 17 10 0 12 -1 12 -20 0z"/>
<path d="M2230 2570 c-13 -8 -12 -10 3 -10 9 0 17 5 17 10 0 12 -1 12 -20 0z"/>
<path d="M645 2550 c4 -6 11 -8 16 -5 14 9 11 15 -7 15 -8 0 -12 -5 -9 -10z"/>
<path d="M2335 2550 c4 -6 11 -8 16 -5 14 9 11 15 -7 15 -8 0 -12 -5 -9 -10z"/>
<path d="M686 2534 c-9 -23 -3 -26 25 -15 21 9 22 10 4 11 -17 0 -17 2 -5 10
13 8 13 10 -1 10 -9 0 -20 -7 -23 -16z"/>
<path d="M2290 2540 c12 -8 12 -10 -5 -11 -20 0 -20 0 0 -9 30 -13 34 -12 28
10 -3 11 -13 20 -22 20 -14 0 -14 -2 -1 -10z"/>
<path d="M730 2460 c0 -5 5 -10 11 -10 5 0 7 5 4 10 -3 6 -8 10 -11 10 -2 0
-4 -4 -4 -10z"/>
<path d="M2255 2460 c-3 -5 -1 -10 4 -10 6 0 11 5 11 10 0 6 -2 10 -4 10 -3 0
-8 -4 -11 -10z"/>
<path d="M678 2453 c7 -3 16 -2 19 1 4 3 -2 6 -13 5 -11 0 -14 -3 -6 -6z"/>
<path d="M2308 2453 c7 -3 16 -2 19 1 4 3 -2 6 -13 5 -11 0 -14 -3 -6 -6z"/>
<path d="M710 2420 c0 -5 5 -10 10 -10 6 0 10 5 10 10 0 6 -4 10 -10 10 -5 0
-10 -4 -10 -10z"/>
<path d="M743 2423 c4 -3 10 -3 14 0 3 4 0 7 -7 7 -7 0 -10 -3 -7 -7z"/>
<path d="M778 2423 c7 -3 16 -2 19 1 4 3 -2 6 -13 5 -11 0 -14 -3 -6 -6z"/>
<path d="M2208 2423 c6 -2 18 -2 25 0 6 3 1 5 -13 5 -14 0 -19 -2 -12 -5z"/>
<path d="M634 2398 c-4 -7 -3 -8 4 -4 12 7 16 16 8 16 -3 0 -8 -5 -12 -12z"/>
<path d="M2355 2400 c3 -5 8 -10 11 -10 3 0 2 5 -1 10 -3 6 -8 10 -11 10 -3 0
-2 -4 1 -10z"/>
<path d="M797 2334 c3 -8 12 -13 20 -10 8 3 20 6 26 6 19 0 -16 20 -35 20 -12
0 -15 -5 -11 -16z"/>
<path d="M2162 2341 c-10 -6 -8 -10 9 -14 26 -7 34 -3 24 12 -7 13 -15 14 -33
2z"/>
<path d="M925 2330 c-16 -7 -17 -9 -3 -9 9 -1 20 4 23 9 7 11 7 11 -20 0z"/>
<path d="M870 2320 c-13 -8 -13 -10 2 -10 9 0 20 5 23 10 8 13 -5 13 -25 0z"/>
<path d="M2118 2313 c7 -3 16 -2 19 1 4 3 -2 6 -13 5 -11 0 -14 -3 -6 -6z"/>
<path d="M765 2279 c-4 -6 -5 -13 -2 -16 8 -8 67 7 67 18 0 13 -57 11 -65 -2z"/>
<path d="M2184 2275 c24 -18 59 -20 54 -2 -3 6 -20 13 -39 15 -32 2 -33 1 -15
-13z"/>
<path d="M923 2223 c4 -3 10 -3 14 0 3 4 0 7 -7 7 -7 0 -10 -3 -7 -7z"/>
<path d="M2063 2223 c4 -3 10 -3 14 0 3 4 0 7 -7 7 -7 0 -10 -3 -7 -7z"/>
<path d="M893 2213 c4 -3 10 -3 14 0 3 4 0 7 -7 7 -7 0 -10 -3 -7 -7z"/>
<path d="M2090 2216 c0 -2 7 -7 16 -10 8 -3 12 -2 9 4 -6 10 -25 14 -25 6z"/>
<path d="M875 2130 c-3 -5 1 -10 9 -10 9 0 16 5 16 10 0 6 -4 10 -9 10 -6 0
-13 -4 -16 -10z"/>
<path d="M2100 2130 c0 -5 7 -10 16 -10 8 0 12 5 9 10 -3 6 -10 10 -16 10 -5
0 -9 -4 -9 -10z"/>
<path d="M1030 2050 c-11 -7 -12 -12 -3 -21 13 -13 53 -3 53 13 0 6 -3 8 -7 5
-3 -4 -11 -3 -17 3 -7 5 -18 5 -26 0z"/>
<path d="M1920 2038 c0 -10 38 -20 50 -13 19 12 10 22 -20 21 -16 -1 -30 -4
-30 -8z"/>
<path d="M1038 1987 c-21 -6 -38 -17 -38 -25 0 -7 3 -12 8 -10 4 3 22 11 40
18 17 8 32 18 32 22 0 4 -1 7 -2 7 -2 -1 -20 -6 -40 -12z"/>
<path d="M1910 1990 c0 -7 3 -10 7 -7 3 4 3 10 0 14 -4 3 -7 0 -7 -7z"/>
<path d="M1858 1983 c-16 -2 -28 -9 -28 -14 0 -14 53 -5 58 9 2 7 2 11 0 11
-1 -1 -15 -4 -30 -6z"/>
<path d="M1960 1971 c30 -25 40 -26 40 -6 0 8 -6 15 -14 15 -8 0 -23 3 -33 6
-13 4 -11 0 7 -15z"/>
<path d="M1320 1870 c0 -7 3 -10 7 -7 3 4 3 10 0 14 -4 3 -7 0 -7 -7z"/>
<path d="M1650 1860 c0 -11 2 -20 4 -20 2 0 6 9 9 20 3 11 1 20 -4 20 -5 0 -9
-9 -9 -20z"/>
<path d="M1080 1860 c-8 -5 -10 -10 -5 -10 6 0 17 5 25 10 8 5 11 10 5 10 -5
0 -17 -5 -25 -10z"/>
<path d="M1915 1860 c27 -12 43 -12 25 0 -8 5 -22 9 -30 9 -10 0 -8 -3 5 -9z"/>
<path d="M1043 1843 c4 -3 10 -3 14 0 3 4 0 7 -7 7 -7 0 -10 -3 -7 -7z"/>
<path d="M1963 1843 c4 -3 10 -3 14 0 3 4 0 7 -7 7 -7 0 -10 -3 -7 -7z"/>
<path d="M1900 1820 c0 -7 3 -10 7 -7 3 4 3 10 0 14 -4 3 -7 0 -7 -7z"/>
<path d="M1030 1810 c-18 -12 -2 -12 25 0 13 6 15 9 5 9 -8 0 -22 -4 -30 -9z"/>
<path d="M1167 1754 c-38 -36 -67 -68 -65 -69 3 -4 76 64 117 109 44 48 17 27
-52 -40z"/>
<path d="M1970 1811 c24 -14 66 -25 55 -13 -5 5 -23 12 -40 16 -20 4 -25 3
-15 -3z"/>
<path d="M995 1800 c-3 -5 -1 -10 4 -10 6 0 11 5 11 10 0 6 -2 10 -4 10 -3 0
-8 -4 -11 -10z"/>
<path d="M1886 1773 c-6 -14 -5 -15 5 -6 7 7 10 15 7 18 -3 3 -9 -2 -12 -12z"/>
<path d="M1950 1780 c0 -7 3 -10 7 -7 3 4 3 10 0 14 -4 3 -7 0 -7 -7z"/>
<path d="M1839 1758 c26 -30 27 -28 -33 -98 -17 -20 -7 -12 22 17 51 53 63 73
40 73 -6 0 -21 8 -32 17 -16 13 -15 11 3 -9z"/>
<path d="M1936 1748 c-3 -10 -8 -25 -11 -34 -3 -10 -11 -14 -21 -10 -14 5 -15
4 -4 -8 10 -12 8 -22 -10 -48 l-22 -33 25 29 c23 26 28 28 44 15 17 -13 17
-13 1 7 -15 17 -16 23 -4 39 9 12 15 15 20 7 4 -7 12 -12 18 -12 6 0 5 7 -4
18 -9 9 -18 24 -21 32 -4 12 -6 12 -11 -2z"/>
<path d="M1030 1686 l-54 -61 62 60 c34 33 62 61 62 62 0 12 -23 -8 -70 -61z"/>
<path d="M1990 1686 c0 -2 8 -10 18 -17 15 -13 16 -12 3 4 -13 16 -21 21 -21
13z"/>
<path d="M2025 1640 c3 -5 8 -10 11 -10 3 0 2 5 -1 10 -3 6 -8 10 -11 10 -3 0
-2 -4 1 -10z"/>
<path d="M1804 1558 l-29 -33 30 25 c17 14 34 28 40 32 5 5 5 8 -1 8 -6 0 -23
-15 -40 -32z"/>
<path d="M1383 1493 c4 -3 10 -3 14 0 3 4 0 7 -7 7 -7 0 -10 -3 -7 -7z"/>
<path d="M1750 1491 c0 -5 7 -12 16 -15 14 -5 15 -4 4 9 -14 17 -20 19 -20 6z"/>
<path d="M1590 1430 c0 -7 3 -10 7 -7 3 4 3 10 0 14 -4 3 -7 0 -7 -7z"/>
<path d="M1450 1420 c0 -7 3 -10 7 -7 3 4 3 10 0 14 -4 3 -7 0 -7 -7z"/>
<path d="M1623 1396 c6 -16 -26 -50 -36 -39 -8 7 -10 -16 -7 -59 1 -16 -3 -28
-8 -28 -6 0 -10 23 -10 51 -1 28 -3 54 -6 57 -3 3 -6 -14 -6 -37 0 -26 -4 -40
-10 -36 -5 3 -10 -1 -10 -10 0 -10 5 -13 12 -9 7 5 9 2 6 -8 -4 -8 -2 -21 3
-29 6 -10 9 -10 9 -1 0 25 20 11 21 -15 0 -16 3 -22 6 -15 2 6 20 12 39 12 20
0 33 4 30 8 -3 5 -19 7 -36 4 -32 -5 -43 13 -12 21 16 4 16 5 0 6 -31 2 -23
60 13 97 26 27 28 32 14 38 -12 4 -16 2 -12 -8z"/>
<path d="M1440 1385 c0 -8 2 -15 4 -15 2 0 6 7 10 15 3 8 1 15 -4 15 -6 0 -10
-7 -10 -15z"/>
<path d="M1513 1330 c0 -25 2 -35 4 -22 2 12 2 32 0 45 -2 12 -4 2 -4 -23z"/>
<path d="M1431 1343 c0 -4 4 -17 9 -28 8 -19 9 -19 9 2 1 12 -3 25 -9 28 -5 3
-10 3 -9 -2z"/>
<path d="M1427 1147 c-11 -11 -27 -17 -38 -14 -11 3 -19 0 -19 -8 0 -7 -7 -18
-16 -26 -13 -10 -17 -10 -24 1 -5 8 -6 19 -3 25 4 5 -3 2 -15 -9 -12 -10 -19
-23 -16 -27 8 -14 16 -10 8 4 -4 6 8 -3 26 -22 25 -27 34 -31 40 -20 6 9 4 17
-6 22 -19 11 -10 23 32 43 28 13 38 14 44 5 5 -9 9 -7 12 7 8 30 -5 40 -25 19z"/>
<path d="M1695 1110 c-6 -10 1 -14 18 -11 5 1 5 -4 1 -10 -4 -8 -3 -9 4 -5 17
10 15 36 -2 36 -8 0 -18 -4 -21 -10z"/>
<path d="M1668 1099 c10 -14 10 -18 -4 -23 -13 -5 -15 -9 -6 -18 14 -14 44
-20 36 -7 -3 5 -11 7 -17 3 -7 -3 -3 2 7 10 11 9 18 17 15 19 -2 1 -13 9 -24
17 -18 14 -19 13 -7 -1z"/>
<path d="M1294 1035 c-9 -14 -15 -27 -13 -30 3 -2 12 10 21 26 21 36 15 39 -8
4z"/>
<path d="M1385 860 c10 -11 20 -20 23 -20 3 0 -3 9 -13 20 -10 11 -20 20 -23
20 -3 0 3 -9 13 -20z"/>
<path d="M1545 802 c19 -24 19 -24 0 -38 -18 -14 -18 -14 0 -28 17 -12 18 -16
5 -32 -13 -18 -13 -18 5 -2 15 14 16 20 5 32 -10 13 -10 19 0 32 11 13 10 19
-10 37 l-24 22 19 -23z"/>
<path d="M1479 698 c34 -37 56 -42 44 -11 -5 12 -8 13 -11 4 -3 -9 -14 -4 -36
16 -29 27 -29 26 3 -9z"/>
<path d="M1412 615 c7 -7 148 -8 155 -1 4 3 -31 6 -77 6 -46 0 -81 -2 -78 -5z"/>
<path d="M1504 577 c-8 -21 2 -35 16 -21 5 5 6 15 0 24 -8 12 -10 12 -16 -3z"/>
<path d="M1443 523 c4 -3 10 -3 14 0 3 4 0 7 -7 7 -7 0 -10 -3 -7 -7z"/>
<path d="M1510 520 c0 -5 -10 -10 -22 -11 -22 -1 -22 -1 2 -8 25 -7 25 -7 -7
-19 -18 -6 -33 -13 -33 -16 0 -3 11 -1 25 4 14 5 30 9 34 7 5 -1 9 2 9 7 0 5
6 13 14 17 10 7 10 9 0 9 -7 0 -10 5 -7 10 3 6 1 10 -4 10 -6 0 -11 -4 -11
-10z"/>
<path d="M1585 450 c10 -11 20 -20 23 -20 3 0 -3 9 -13 20 -10 11 -20 20 -23
20 -3 0 3 -9 13 -20z"/>
</g>
</svg>
